<svg xmlns="http://www.w3.org/2000/svg" xml:space="preserve" fill-rule="evenodd" stroke-linejoin="round" stroke-miterlimit="2" clip-rule="evenodd" viewBox="0 0 583 150">
  <path fill-rule="nonzero" d="M192.613 28.947h8.939l13.247 38.969 13.182-38.97h8.81v46.107h-5.916v-27.2c0-.965 0-2.509.064-4.695.064-2.186.064-4.501.064-7.01l-13.182 38.905h-6.173L198.4 36.15v1.415c0 1.157 0 2.829.064 5.144s.129 4.051.129 5.144v27.201h-5.98V28.947Z"/>
  <path fill-rule="nonzero" d="M239.556 28.947h7.267l13.246 22.12 13.247-22.12h7.331L263.22 56.469v18.584h-6.237V56.47l-17.427-27.522Z"/>
  <path fill-rule="nonzero" d="M195.258 88.021c.074-1.325.294-2.32.7-2.946.773-1.104 2.246-1.656 4.381-1.656.221 0 .405.036.626.036.221 0 .479.037.736.037v2.946c-.33 0-.552-.037-.736-.037h-.405c-.994 0-1.583.258-1.767.773-.184.516-.295 1.804-.295 3.866h3.203v2.578h-3.24v16.606h-3.203V93.618h-2.651V91.04h2.65v-3.019Z"/>
  <path fill-rule="nonzero" d="M202.947 90.967h3.056v3.314c.258-.626.884-1.436 1.878-2.357.957-.92 2.099-1.4 3.388-1.4.073 0 .147 0 .294.038.147 0 .405.036.737.073v3.425a2.888 2.888 0 0 0-.516-.074c-.184-.037-.331-.037-.552-.037-1.62 0-2.872.516-3.756 1.583a5.554 5.554 0 0 0-1.289 3.609v11.083h-3.24V90.967Z"/>
  <path fill-rule="nonzero" d="M221.284 90.525c1.362 0 2.688.331 3.976.957 1.289.663 2.246 1.473 2.946 2.504.626.957 1.068 2.099 1.289 3.387.184.884.294 2.32.294 4.272H215.65c.074 1.951.552 3.498 1.4 4.676.846 1.178 2.209 1.767 4.013 1.767 1.693 0 3.019-.552 4.05-1.657.552-.663.957-1.399 1.215-2.246h3.167c-.074.7-.332 1.51-.81 2.357a8.337 8.337 0 0 1-1.62 2.135c-.958.958-2.173 1.62-3.646 1.952-.773.184-1.657.294-2.614.294-2.43 0-4.455-.883-6.112-2.614-1.657-1.767-2.504-4.197-2.504-7.327 0-3.093.847-5.634 2.54-7.548 1.658-1.915 3.867-2.91 6.555-2.91Zm5.155 8.542c-.11-1.399-.442-2.54-.921-3.387-.884-1.547-2.356-2.32-4.418-2.32-1.51 0-2.725.552-3.756 1.62-.994 1.068-1.547 2.43-1.583 4.087h10.678Z"/>
  <path fill-rule="nonzero" d="M239.92 90.525c1.363 0 2.689.331 3.977.957 1.29.663 2.246 1.473 2.946 2.504.626.957 1.068 2.099 1.289 3.387.184.884.294 2.32.294 4.272h-14.139c.074 1.951.553 3.498 1.4 4.676.846 1.178 2.209 1.767 4.013 1.767 1.694 0 3.02-.552 4.05-1.657.552-.663.957-1.399 1.215-2.246h3.167c-.074.7-.332 1.51-.81 2.357a8.337 8.337 0 0 1-1.62 2.135c-.958.958-2.173 1.62-3.646 1.952-.773.184-1.656.294-2.614.294-2.43 0-4.455-.883-6.112-2.614-1.657-1.767-2.504-4.197-2.504-7.327 0-3.093.847-5.634 2.54-7.548 1.658-1.915 3.867-2.91 6.555-2.91Zm5.156 8.542c-.11-1.399-.442-2.54-.92-3.387-.884-1.547-2.357-2.32-4.42-2.32-1.509 0-2.724.552-3.755 1.62-.994 1.068-1.546 2.43-1.583 4.087h10.678Z"/>
  <path fill-rule="nonzero" d="M250.642 83.824h3.24v26.4h-3.24z"/>
  <path fill-rule="nonzero" d="M264.53 108.125c2.135 0 3.607-.81 4.417-2.43.774-1.62 1.179-3.424 1.179-5.413 0-1.804-.258-3.277-.847-4.381-.92-1.768-2.504-2.651-4.713-2.651-1.988 0-3.424.736-4.308 2.246-.92 1.51-1.362 3.35-1.362 5.486 0 2.025.441 3.755 1.362 5.118.884 1.362 2.32 2.025 4.271 2.025Zm.11-17.71c2.503 0 4.602.81 6.296 2.466 1.73 1.657 2.577 4.087 2.577 7.328 0 3.092-.736 5.67-2.246 7.695-1.51 2.025-3.866 3.02-7.033 3.02-2.65 0-4.75-.884-6.333-2.689-1.546-1.804-2.32-4.197-2.32-7.216 0-3.24.81-5.818 2.468-7.733 1.62-1.914 3.829-2.872 6.59-2.872Z"/>
  <path fill-rule="nonzero" d="M282.32 90.635c1.509 0 2.835.369 3.94 1.105.625.405 1.251 1.03 1.877 1.84v-2.43h2.982v17.527c0 2.43-.331 4.345-1.067 5.781-1.326 2.614-3.867 3.903-7.622 3.903-2.062 0-3.793-.442-5.229-1.4-1.399-.92-2.209-2.356-2.356-4.344h3.277c.147.847.479 1.51.957 1.988.737.737 1.878 1.068 3.424 1.068 2.504 0 4.124-.847 4.898-2.614.441-1.031.662-2.872.626-5.523-.663.994-1.436 1.73-2.357 2.209-.884.479-2.099.7-3.608.7-2.062 0-3.903-.737-5.45-2.21-1.583-1.472-2.356-3.94-2.356-7.327 0-3.24.773-5.744 2.356-7.548 1.584-1.841 3.461-2.725 5.707-2.725Zm5.817 9.868c0-2.356-.479-4.124-1.473-5.302-.994-1.141-2.246-1.73-3.756-1.73-2.282 0-3.829 1.067-4.676 3.203-.442 1.141-.662 2.65-.662 4.492 0 2.172.441 3.83 1.325 4.934.884 1.141 2.062 1.73 3.535 1.73 2.356 0 3.976-1.067 4.934-3.166.515-1.178.773-2.578.773-4.16Z"/>
  <path fill-rule="nonzero" d="M301.8 108.125c2.136 0 3.609-.81 4.419-2.43.773-1.62 1.178-3.424 1.178-5.413 0-1.804-.258-3.277-.847-4.381-.92-1.768-2.504-2.651-4.713-2.651-1.988 0-3.424.736-4.308 2.246-.92 1.51-1.362 3.35-1.362 5.486 0 2.025.442 3.755 1.362 5.118.884 1.362 2.32 2.025 4.271 2.025Zm.11-17.71c2.505 0 4.603.81 6.297 2.466 1.73 1.657 2.577 4.087 2.577 7.328 0 3.092-.736 5.67-2.246 7.695-1.51 2.025-3.866 3.02-7.032 3.02-2.651 0-4.75-.884-6.333-2.689-1.547-1.804-2.32-4.197-2.32-7.216 0-3.24.81-5.818 2.467-7.733 1.62-1.914 3.83-2.872 6.59-2.872Z"/>
  <path fill-rule="nonzero" d="M313.552 106.32h3.756v3.904h-3.756z"/>
  <path fill-rule="nonzero" d="M321.168 90.967h3.203v2.724c.773-.92 1.473-1.62 2.099-2.062 1.068-.736 2.283-1.104 3.645-1.104 1.51 0 2.762.405 3.682 1.141.552.442 1.031 1.068 1.436 1.915.737-1.031 1.583-1.804 2.54-2.283.995-.515 2.063-.773 3.278-.773 2.577 0 4.345.957 5.302 2.835.479.994.736 2.357.736 4.05v12.814h-3.35V96.858c0-1.289-.332-2.172-.958-2.651-.662-.479-1.436-.737-2.356-.737-1.289 0-2.357.442-3.277 1.29-.92.846-1.4 2.282-1.4 4.27v11.194h-3.276V97.668c0-1.326-.148-2.283-.48-2.872-.478-.884-1.398-1.362-2.724-1.362-1.252 0-2.356.478-3.35 1.436-.995.957-1.51 2.65-1.51 5.154v10.2h-3.24V90.967Z"/>
  <path fill-rule="nonzero" d="M358.025 90.525c1.362 0 2.688.331 3.976.957 1.29.663 2.246 1.473 2.946 2.504.626.957 1.068 2.099 1.289 3.387.184.884.294 2.32.294 4.272h-14.139c.074 1.951.553 3.498 1.4 4.676.846 1.178 2.209 1.767 4.013 1.767 1.694 0 3.02-.552 4.05-1.657.552-.663.957-1.399 1.215-2.246h3.167c-.074.7-.332 1.51-.81 2.357a8.337 8.337 0 0 1-1.62 2.135c-.958.958-2.173 1.62-3.646 1.952-.773.184-1.656.294-2.614.294-2.43 0-4.455-.883-6.112-2.614-1.657-1.767-2.504-4.197-2.504-7.327 0-3.093.847-5.634 2.54-7.548 1.658-1.915 3.867-2.91 6.555-2.91Zm5.155 8.542c-.11-1.399-.442-2.54-.92-3.387-.884-1.547-2.357-2.32-4.42-2.32-1.509 0-2.724.552-3.755 1.62-.994 1.068-1.546 2.43-1.583 4.087h10.678Z"/>
  <path fill-rule="nonzero" d="M315.297 70.215c-3.473 3.151-7.845 4.759-13.247 4.759-6.688 0-11.897-2.122-15.69-6.43-3.795-4.245-5.724-10.16-5.724-17.62 0-8.103 2.187-14.276 6.495-18.713 3.794-3.794 8.553-5.659 14.404-5.659 7.781 0 13.44 2.508 17.041 7.653 1.994 2.829 3.087 5.723 3.216 8.616h-9.646c-.643-2.186-1.48-3.922-2.444-5.015-1.736-1.994-4.373-3.023-7.845-3.023-3.472 0-6.238 1.415-8.295 4.244-1.994 2.83-3.023 6.881-3.023 12.026 0 5.208 1.03 9.13 3.216 11.703 2.122 2.572 4.887 3.858 8.166 3.858 3.408 0 5.98-1.093 7.781-3.343.965-1.158 1.8-2.959 2.444-5.338h9.581c-.836 5.016-3.022 9.132-6.43 12.282Z"/>
  <path fill-rule="nonzero" d="M346.367 74.974c-6.624 0-11.704-1.8-15.176-5.402-4.694-4.437-7.074-10.803-7.074-19.098 0-8.488 2.38-14.855 7.074-19.099 3.472-3.6 8.552-5.401 15.176-5.401 6.559 0 11.639 1.8 15.111 5.401 4.695 4.244 7.01 10.61 7.01 19.099 0 8.295-2.315 14.661-7.01 19.098-3.472 3.601-8.552 5.402-15.111 5.402Zm9.131-12.41c2.186-2.83 3.344-6.881 3.344-12.09s-1.158-9.196-3.408-12.025c-2.25-2.83-5.273-4.244-9.067-4.244-3.859 0-6.945 1.414-9.196 4.244-2.315 2.83-3.408 6.816-3.408 12.025 0 5.209 1.093 9.26 3.408 12.09 2.25 2.829 5.337 4.243 9.196 4.243 3.794 0 6.816-1.414 9.131-4.244Z"/>
  <path fill-rule="nonzero" d="M381.53 73.688h-9.002v-46.3h14.019l8.424 36.397 8.36-36.397h13.954v46.3h-9.067V42.37c0-.9.064-2.122.064-3.794v-3.73l-8.746 38.84h-9.388l-8.681-38.84v3.73c.064 1.672.064 2.894.064 3.794v31.317Z"/>
  <path fill-rule="nonzero" d="M442.685 57.033h-9.839v16.655h-9.581v-46.3h20.127c4.63 0 8.36 1.222 11.125 3.601 2.765 2.38 4.116 6.11 4.116 11.06 0 5.467-1.35 9.325-4.116 11.576-2.765 2.315-6.688 3.408-11.832 3.408Zm4.501-9.646c1.287-1.093 1.865-2.83 1.865-5.273 0-2.38-.578-4.115-1.865-5.144-1.286-1.03-3.022-1.544-5.337-1.544h-9.003V49.06h9.003c2.315 0 4.051-.514 5.337-1.672Z"/>
  <path fill-rule="nonzero" d="M485.32 64.17h-17.106l-3.15 9.518h-10.161l16.526-46.3h10.932l16.398 46.3h-10.482l-2.958-9.517Zm-2.702-7.973-5.787-18.198-5.98 18.198h11.767Z"/>
  <path fill-rule="nonzero" d="M538.832 73.688h-9.646l-18.906-32.86v32.86h-9.002v-46.3h10.096l18.455 32.346V27.388h9.003v46.3Z"/>
  <path fill-rule="nonzero" d="m581.991 27.388-15.433 28.873v17.427h-9.71V56.26l-16.012-28.873h11.382l9.646 20.192 9.195-20.192h10.932Z"/>
  <path d="M34.299 68.593c18.942 0 34.298-15.356 34.298-34.299C68.597 15.352 53.241-.004 34.3-.004c-18.943 0-34.3 15.356-34.3 34.298v34.3h34.3Z"/>
  <path d="M81.396 34.297c0 18.942 15.356 34.299 34.299 34.299 18.942 0 34.298-15.357 34.298-34.3 0-18.942-15.356-34.298-34.298-34.298h-34.3v34.299Z"/>
  <path d="M115.701 81.398c-18.942 0-34.298 15.356-34.298 34.299 0 18.942 15.356 34.299 34.298 34.299 18.943 0 34.3-15.357 34.3-34.3V81.399h-34.3Z"/>
  <path d="M68.595 115.704c0-18.943-15.356-34.3-34.299-34.3-18.942 0-34.299 15.357-34.299 34.3 0 18.942 15.357 34.298 34.299 34.298h34.299v-34.298Z"/>
  <path d="M74.992 53.049C77.39 63.593 86.398 72.6 96.942 75 86.399 77.4 77.392 86.407 74.993 96.951c-2.4-10.544-11.4-19.552-21.95-21.95 10.55-2.4 19.55-11.408 21.95-21.952Z"/>
</svg>
