<svg xmlns="http://www.w3.org/2000/svg" xmlns:bx="https://boxy-svg.com" fill-rule="evenodd" stroke-linejoin="round" stroke-miterlimit="2" clip-rule="evenodd" viewBox="0 0 583 150">
  <defs>
    <bx:guide x="225.275" y="95.073" angle="90"/>
    <bx:guide x="221.239" y="48.327" angle="90"/>
  </defs>
  <path fill-rule="nonzero" d="M 276.265 95.073 C 269.641 95.073 264.561 93.356 261.089 89.919 C 256.395 85.687 254.015 79.613 254.015 71.7 C 254.015 63.602 256.395 57.528 261.089 53.48 C 264.561 50.045 269.641 48.327 276.265 48.327 C 282.824 48.327 287.904 50.044 291.376 53.48 C 296.071 57.528 298.386 63.601 298.386 71.7 C 298.386 79.613 296.071 85.687 291.376 89.919 C 287.904 93.355 282.824 95.073 276.265 95.073 Z M 285.396 83.234 C 287.582 80.534 288.74 76.669 288.74 71.7 C 288.74 66.731 287.582 62.927 285.332 60.228 C 283.082 57.528 280.059 56.179 276.265 56.179 C 272.406 56.179 269.32 57.528 267.069 60.228 C 264.754 62.928 263.661 66.731 263.661 71.7 C 263.661 76.669 264.754 80.534 267.069 83.234 C 269.319 85.933 272.406 87.282 276.265 87.282 C 280.059 87.282 283.081 85.933 285.396 83.233 L 285.396 83.234 Z" style=""/>
  <path fill-rule="nonzero" d="M 194.635 78.313 L 184.796 78.313 L 184.796 95.073 L 175.215 95.073 L 175.215 48.48 L 195.342 48.48 C 199.972 48.48 203.702 49.71 206.467 52.104 C 209.232 54.499 210.583 58.252 210.583 63.234 C 210.583 68.735 209.233 72.618 206.467 74.883 C 203.702 77.213 199.779 78.313 194.635 78.313 Z M 199.136 68.606 C 200.423 67.506 201.001 65.758 201.001 63.299 C 201.001 60.904 200.423 59.158 199.136 58.123 C 197.85 57.086 196.114 56.569 193.799 56.569 L 184.796 56.569 L 184.796 70.289 L 193.799 70.289 C 196.114 70.289 197.85 69.772 199.136 68.607 L 199.136 68.606 Z" style=""/>
  <path d="M34.299 68.593c18.942 0 34.298-15.356 34.298-34.299C68.597 15.352 53.241-.004 34.3-.004c-18.943 0-34.3 15.356-34.3 34.298v34.3h34.3Z"/>
  <path d="M81.396 34.297c0 18.942 15.356 34.299 34.299 34.299 18.942 0 34.298-15.357 34.298-34.3 0-18.942-15.356-34.298-34.298-34.298h-34.3v34.299Z"/>
  <path d="M115.701 81.398c-18.942 0-34.298 15.356-34.298 34.299 0 18.942 15.356 34.299 34.298 34.299 18.943 0 34.3-15.357 34.3-34.3V81.399h-34.3Z"/>
  <path d="M68.595 115.704c0-18.943-15.356-34.3-34.299-34.3-18.942 0-34.299 15.357-34.299 34.3 0 18.942 15.357 34.298 34.299 34.298h34.299v-34.298Z"/>
  <path d="M74.992 53.049C77.39 63.593 86.398 72.6 96.942 75 86.399 77.4 77.392 86.407 74.993 96.951c-2.4-10.544-11.4-19.552-21.95-21.95 10.55-2.4 19.55-11.408 21.95-21.952Z"/>
  <text style="font-family: Arial, sans-serif; font-size: 28px; font-weight: 700; white-space: pre;" transform="matrix(2.185113, 0, 0, 2.329203, -270.775726, -67.026138)" x="220.207" y="69.606">R</text>
  <text style="white-space: pre; fill: rgb(51, 51, 51); font-family: Arial, sans-serif; font-size: 28px;" x="274.626" y="90.276"> </text>
  <text style="white-space: pre; fill: rgb(51, 51, 51); font-family: Arial, sans-serif; font-size: 28px;" x="439.74" y="118.434"> </text>
  <text style="font-family: Arial, sans-serif; font-size: 28px; white-space: pre;" transform="matrix(2.187448, 0, 0, 2.323993, -415.520325, -87.874786)" x="327.841" y="78.694">FAC</text>
  <text style="white-space: pre; fill: rgb(51, 51, 51); font-family: Arial, sans-serif; font-size: 28px;" x="472.846" y="58.714"> </text>
</svg>
